<svg xmlns="http://www.w3.org/2000/svg" version="1.0" width="1024" height="1024" viewBox="0 0 657 657" preserveAspectRatio="xMidYMid meet">
<g transform="translate(-185,839.5) scale(0.1,-0.1)" fill="#000000" stroke="none">
<path d="M7132 7829 c-535 -309 -969 -566 -965 -570 15 -14 1936 -1120 1939 -1116 2 2 3 509 2 1126 l-3 1121 -973 -561z"/>
<path d="M2377 7679 c-314 -577 -326 -1213 -33 -1743 76 -135 149 -229 301 -382 149 -151 285 -261 470 -383 287 -189 398 -240 2434 -1133 1232 -540 1298 -569 1421 -640 365 -210 638 -482 776 -772 24 -51 44 -98 44 -105 0 -47 68 50 136 194 132 277 200 653 174 956 -38 457 -199 756 -631 1174 -232 225 -397 332 -774 503 -372 168 -2080 919 -3055 1342 -168 73 -341 153 -385 178 -349 196 -647 498 -788 802 l-44 93 -46 -84z"/>
<path d="M2160 2975 l0 -1126 28 16 c15 9 450 260 966 558 517 299 941 547 942 552 2 8 -1315 775 -1877 1093 l-59 34 0 -1127z"/>
</g>
</svg>